<?xml version="1.0" encoding="iso-8859-1"?>
<!-- Generator: Adobe Illustrator 16.0.0, SVG Export Plug-In . SVG Version: 6.00 Build 0)  -->
<!DOCTYPE svg PUBLIC "-//W3C//DTD SVG 1.1//EN" "http://www.w3.org/Graphics/SVG/1.1/DTD/svg11.dtd">
<svg version="1.1" id="Capa_1" xmlns="http://www.w3.org/2000/svg" xmlns:xlink="http://www.w3.org/1999/xlink" x="0px" y="0px"
	 width="28.408px" height="28.408px" viewBox="0 0 28.408 28.408" style="enable-background:new 0 0 28.408 28.408;"
	 xml:space="preserve">
<g>
	<path d="M14.206,28.408c-3.387,0-6.772-1.289-9.351-3.867c-2.498-2.497-3.875-5.818-3.875-9.352c0-3.532,1.377-6.854,3.875-9.352
		c0.977-0.977,2.559-0.977,3.535,0c0.976,0.978,0.977,2.56,0,3.535c-1.555,1.554-2.41,3.618-2.41,5.814
		c0,2.197,0.855,4.263,2.41,5.814c1.554,1.553,3.617,2.408,5.814,2.408c2.197,0,4.262-0.855,5.814-2.408
		c1.556-1.554,2.41-3.617,2.41-5.814c0-2.196-0.854-4.262-2.41-5.814c-0.978-0.977-0.978-2.56,0-3.535
		c0.976-0.977,2.56-0.977,3.535,0c2.498,2.497,3.875,5.818,3.875,9.352s-1.377,6.854-3.875,9.352
		C20.978,27.119,17.592,28.408,14.206,28.408z M16.207,12.441V2c0-1.104-0.896-2-2-2s-2,0.896-2,2v10.441c0,1.104,0.896,2,2,2
		S16.207,13.546,16.207,12.441z"/>
</g>
<g>
</g>
<g>
</g>
<g>
</g>
<g>
</g>
<g>
</g>
<g>
</g>
<g>
</g>
<g>
</g>
<g>
</g>
<g>
</g>
<g>
</g>
<g>
</g>
<g>
</g>
<g>
</g>
<g>
</g>
</svg>
