<?xml version="1.0" encoding="iso-8859-1"?>
<!-- Generator: Adobe Illustrator 18.1.1, SVG Export Plug-In . SVG Version: 6.00 Build 0)  -->
<svg version="1.1" id="Capa_1" xmlns="http://www.w3.org/2000/svg" xmlns:xlink="http://www.w3.org/1999/xlink" x="0px" y="0px"
	 viewBox="0 0 23.304 23.304" style="enable-background:new 0 0 23.304 23.304;" xml:space="preserve">
<g>
	<g>
		<circle style="fill:#010002;" cx="11.651" cy="1.805" r="1.805"/>
		<circle style="fill:#010002;" cx="11.651" cy="21.498" r="1.805"/>
		<circle style="fill:#010002;" cx="21.498" cy="11.653" r="1.806"/>
		<circle style="fill:#010002;" cx="1.806" cy="11.653" r="1.806"/>
		<path style="fill:#010002;" d="M16.969,16.969l-0.434-1.489l-0.359,0.355l-1.745-1.745c0.512-0.599,0.833-1.356,0.874-2.195h2.506
			v0.504l1.362-0.747l-1.362-0.747v0.504h-2.519c-0.068-0.82-0.399-1.561-0.919-2.139l1.803-1.803l0.359,0.358l0.434-1.492
			l-1.491,0.435l0.356,0.357l-1.809,1.809c-0.583-0.499-1.318-0.813-2.132-0.868V5.493h0.505L11.65,4.13l-0.746,1.363h0.506v2.572
			C10.596,8.12,9.859,8.435,9.276,8.934L7.467,7.125l0.358-0.357L6.334,6.333l0.435,1.492l0.358-0.358l1.801,1.801
			c-0.52,0.578-0.852,1.319-0.92,2.14H5.493v-0.504l-1.362,0.747l1.362,0.747v-0.504h2.501c0.042,0.839,0.363,1.597,0.875,2.195
			l-1.745,1.745L6.766,15.48L6.334,16.97l1.491-0.434l-0.358-0.358l1.739-1.74c0.594,0.533,1.357,0.869,2.203,0.925v2.448h-0.506
			l0.746,1.361l0.749-1.361h-0.505v-2.448c0.846-0.057,1.608-0.394,2.201-0.926l1.741,1.741l-0.358,0.357L16.969,16.969z"/>
		<circle style="fill:#010002;" cx="18.613" cy="4.689" r="1.805"/>
		<circle style="fill:#010002;" cx="4.689" cy="18.615" r="1.805"/>
		<circle style="fill:#010002;" cx="18.613" cy="18.615" r="1.805"/>
		<circle style="fill:#010002;" cx="4.688" cy="4.689" r="1.806"/>
	</g>
</g>
<g>
</g>
<g>
</g>
<g>
</g>
<g>
</g>
<g>
</g>
<g>
</g>
<g>
</g>
<g>
</g>
<g>
</g>
<g>
</g>
<g>
</g>
<g>
</g>
<g>
</g>
<g>
</g>
<g>
</g>
</svg>
